<svg aria-hidden="true" style="position: absolute; width: 0; height: 0; overflow: hidden;" version="1.1" xmlns="http://www.w3.org/2000/svg" xmlns:xlink="http://www.w3.org/1999/xlink">
<defs>
<symbol id="logo-filmoteka" viewBox="0 0 20 20">
<path  stroke="#000" stroke-linecap="round" stroke-linejoin="round" stroke-width="1.667" d="M16.517 1.667H3.484a1.817 1.817 0 0 0-1.817 1.817v13.033c0 1.003.813 1.817 1.817 1.817h13.033a1.817 1.817 0 0 0 1.817-1.817V3.484a1.817 1.817 0 0 0-1.817-1.817zM5.833 1.667v16.667M14.167 1.667v16.667M1.667 10h16.667M1.667 5.833h4.167M1.667 14.167h4.167M14.167 14.167h4.167M14.167 5.833h4.167"/>
</symbol>
<symbol id="magnifier" viewBox="0 0 20 20"><!-- ya pasado por svgomg -->
<path fill="none" stroke="#000" stroke-linecap="round" stroke-linejoin="round" stroke-width="1.667" d="M9.167 15.833a6.667 6.667 0 1 0 0-13.334 6.667 6.667 0 0 0 0 13.334zM17.5 17.5l-3.625-3.625"/>
</symbol>
<symbol id="orange-heart" viewBox="0 0 20 20">
<path fill="#ff6b08" d="m10 18.84-1.4-1.386C3.4 12.9 0 9.83 0 6.068 0 2.999 2.4.622 5.5.622c1.7 0 3.4.792 4.5 2.079C11.1 1.414 12.8.622 14.5.622c3.1 0 5.5 2.376 5.5 5.446 0 3.762-3.4 6.832-8.6 11.386L10 18.84z"/>
</symbol>
<symbol id="icon-searchLUPA" viewBox="0 0 20 20"><!-- sin pasar por svgomg -->
<path stroke-linejoin="round" stroke-linecap="round" stroke-miterlimit="4" stroke-width="1.6667" d="M9.167 15.833c3.682 0 6.667-2.985 6.667-6.667s-2.985-6.667-6.667-6.667c-3.682 0-6.667 2.985-6.667 6.667s2.985 6.667 6.667 6.667z"></path>
<path stroke-linejoin="round" stroke-linecap="round" stroke-miterlimit="4" stroke-width="1.6667" d="M17.5 17.5l-3.625-3.625"></path>
</symbol>
<symbol id="peli-icon" viewBox="0 0 20 20"><!-- svgomg primero y despues icomoons-->
<path  stroke-linejoin="round" stroke-linecap="round" stroke-miterlimit="4" stroke-width="1.6667" stroke="#000" d="M16.517 1.667h-13.033c-1.003 0-1.817 0.813-1.817 1.817v0 13.033c0 1.003 0.813 1.817 1.817 1.817v0h13.033c1.003 0 1.817-0.813 1.817-1.817v0-13.033c0-1.003-0.813-1.817-1.817-1.817v0zM5.833 1.667v16.667M14.167 1.667v16.667M1.667 10h16.667M1.667 5.833h4.167M1.667 14.167h4.167M14.167 14.167h4.167M14.167 5.833h4.167"></path>
<path stroke-linejoin="round" stroke-linecap="round" stroke-miterlimit="4" stroke-width="1.6667" d="M17.5 17.5l-3.625-3.625"></path>
</symbol>


</defs>
</svg>